<svg width="30" height="30" viewBox="0 0 30 30" fill="none" xmlns="http://www.w3.org/2000/svg">
<g id="Frame 44">
<g id="Vector">
<path d="M5.69684 25.5C5.3906 25.5 5.08436 25.3828 4.8499 25.1507C4.38337 24.6842 4.38337 23.9259 4.8499 23.4594L23.4586 4.85226C23.9251 4.38577 24.6836 4.38577 25.1501 4.85226C25.6166 5.31876 25.6166 6.07711 25.1501 6.5436L6.54138 25.1507C6.30931 25.3828 6.00308 25.5 5.69684 25.5Z" fill="black"/>
<path d="M24.3056 25.5C23.9993 25.5 23.6931 25.3828 23.4586 25.1507L4.8499 6.54121C4.38337 6.07472 4.38337 5.31636 4.8499 4.84987C5.31643 4.38338 6.07485 4.38338 6.54138 4.84987L25.1501 23.457C25.6166 23.9235 25.6166 24.6818 25.1501 25.1483C24.918 25.3828 24.6118 25.5 24.3056 25.5Z" fill="black"/>
</g>
</g>
</svg>