<svg width="31" height="31" viewBox="0 0 31 31" fill="none" xmlns="http://www.w3.org/2000/svg">
<circle opacity="0.5" cx="15.305" cy="15.305" r="15.305" fill="#425884" fill-opacity="0.1"/>
<path opacity="0.5" d="M16.5304 23.2636C16.3979 23.2636 16.269 23.2206 16.163 23.1412L13.7134 21.3046C13.6374 21.2475 13.5756 21.1736 13.5331 21.0886C13.4906 21.0036 13.4685 20.9098 13.4685 20.8148V17.3742L9.17189 12.5421C8.86675 12.198 8.66751 11.7731 8.59813 11.3185C8.52874 10.8639 8.59216 10.3989 8.78077 9.97948C8.96937 9.56004 9.27514 9.20397 9.66131 8.95408C10.0475 8.70418 10.4976 8.57109 10.9576 8.5708H19.6537C20.1136 8.57134 20.5637 8.70465 20.9497 8.95472C21.3357 9.20478 21.6413 9.56096 21.8297 9.98044C22.0181 10.3999 22.0813 10.8649 22.0117 11.3194C21.9422 11.774 21.7428 12.1988 21.4376 12.5428L17.1428 17.3742V22.6514C17.1428 22.8138 17.0783 22.9695 16.9635 23.0843C16.8486 23.1991 16.6929 23.2636 16.5304 23.2636Z" fill="#5E6A81"/>
</svg>
