<svg width="38" height="38" viewBox="0 0 38 38" fill="none" xmlns="http://www.w3.org/2000/svg">
<rect opacity="0.1" width="38" height="38" rx="7" fill="#5E6A81"/>
<path d="M27 17C27 23.2222 19 28.5556 19 28.5556C19 28.5556 11 23.2222 11 17C11 14.8783 11.8429 12.8434 13.3431 11.3431C14.8434 9.84285 16.8783 9 19 9C21.1217 9 23.1566 9.84285 24.6569 11.3431C26.1571 12.8434 27 14.8783 27 17Z" fill="#15A9E8"/>
<path d="M19 19.6667C20.4728 19.6667 21.6667 18.4728 21.6667 17C21.6667 15.5272 20.4728 14.3333 19 14.3333C17.5273 14.3333 16.3333 15.5272 16.3333 17C16.3333 18.4728 17.5273 19.6667 19 19.6667Z" fill="#15A9E8" stroke="white" stroke-linecap="round" stroke-linejoin="round"/>
</svg>
