<svg width="13" height="13" viewBox="0 0 13 13" fill="none" xmlns="http://www.w3.org/2000/svg">
<path d="M0.520921 2.64187H1.94616C2.05797 3.05325 2.30204 3.41642 2.64072 3.67534C2.9794 3.93425 3.39386 4.07453 3.82017 4.07453C4.24648 4.07453 4.66095 3.93425 4.99963 3.67534C5.33831 3.41642 5.58238 3.05325 5.69419 2.64187H11.9812C12.1193 2.64187 12.2518 2.58698 12.3495 2.48929C12.4472 2.3916 12.5021 2.2591 12.5021 2.12095C12.5021 1.98279 12.4472 1.85029 12.3495 1.7526C12.2518 1.65491 12.1193 1.60002 11.9812 1.60002H5.69419C5.58238 1.18864 5.33831 0.825471 4.99963 0.566554C4.66095 0.307638 4.24648 0.167358 3.82017 0.167358C3.39386 0.167358 2.9794 0.307638 2.64072 0.566554C2.30204 0.825471 2.05797 1.18864 1.94616 1.60002H0.520921C0.382764 1.60002 0.250266 1.65491 0.152574 1.7526C0.0548826 1.85029 0 1.98279 0 2.12095C0 2.2591 0.0548826 2.3916 0.152574 2.48929C0.250266 2.58698 0.382764 2.64187 0.520921 2.64187ZM3.81991 1.20933C4.00021 1.20933 4.17646 1.2628 4.32638 1.36297C4.47629 1.46314 4.59313 1.60551 4.66213 1.77209C4.73113 1.93866 4.74918 2.12196 4.71401 2.29879C4.67883 2.47563 4.59201 2.63806 4.46452 2.76555C4.33703 2.89304 4.17459 2.97987 3.99776 3.01504C3.82092 3.05021 3.63763 3.03216 3.47105 2.96316C3.30448 2.89417 3.1621 2.77732 3.06194 2.62741C2.96177 2.4775 2.9083 2.30124 2.9083 2.12095C2.90858 1.87926 3.00471 1.64754 3.17561 1.47664C3.34651 1.30574 3.57822 1.20961 3.81991 1.20933Z" fill="#BFBFBF"/>
<path d="M11.9812 5.89759H10.5559C10.4443 5.48611 10.2003 5.12281 9.86169 4.86379C9.52304 4.60476 9.10854 4.46442 8.68219 4.46442C8.25583 4.46442 7.84133 4.60476 7.50268 4.86379C7.16403 5.12281 6.92006 5.48611 6.80843 5.89759H0.520921C0.382764 5.89759 0.250266 5.95247 0.152574 6.05017C0.0548826 6.14786 0 6.28036 0 6.41851C0 6.55667 0.0548826 6.68917 0.152574 6.78686C0.250266 6.88455 0.382764 6.93943 0.520921 6.93943H6.80843C6.92006 7.35092 7.16403 7.71422 7.50268 7.97324C7.84133 8.23226 8.25583 8.37261 8.68219 8.37261C9.10854 8.37261 9.52304 8.23226 9.86169 7.97324C10.2003 7.71422 10.4443 7.35092 10.5559 6.93943H11.9812C12.1193 6.93943 12.2518 6.88455 12.3495 6.78686C12.4472 6.68917 12.5021 6.55667 12.5021 6.41851C12.5021 6.28036 12.4472 6.14786 12.3495 6.05017C12.2518 5.95247 12.1193 5.89759 11.9812 5.89759ZM8.68219 7.33013C8.50189 7.33013 8.32564 7.27666 8.17572 7.17649C8.02581 7.07632 7.90897 6.93395 7.83997 6.76737C7.77097 6.6008 7.75292 6.4175 7.78809 6.24067C7.82327 6.06383 7.91009 5.9014 8.03758 5.77391C8.16507 5.64641 8.32751 5.55959 8.50434 5.52442C8.68118 5.48924 8.86447 5.5073 9.03105 5.57629C9.19762 5.64529 9.34 5.76214 9.44016 5.91205C9.54033 6.06196 9.5938 6.23821 9.5938 6.41851C9.59352 6.6602 9.49739 6.89192 9.32649 7.06282C9.15559 7.23372 8.92388 7.32985 8.68219 7.33013Z" fill="#BFBFBF"/>
<path d="M11.9812 10.1952H5.69419C5.58238 9.78384 5.33831 9.42067 4.99963 9.16175C4.66095 8.90284 4.24648 8.76256 3.82017 8.76256C3.39386 8.76256 2.9794 8.90284 2.64072 9.16175C2.30204 9.42067 2.05797 9.78384 1.94616 10.1952H0.520921C0.382764 10.1952 0.250266 10.2501 0.152574 10.3478C0.0548826 10.4455 0 10.578 0 10.7161C0 10.8543 0.0548826 10.9868 0.152574 11.0845C0.250266 11.1822 0.382764 11.2371 0.520921 11.2371H1.94616C2.05797 11.6485 2.30204 12.0116 2.64072 12.2705C2.9794 12.5295 3.39386 12.6697 3.82017 12.6697C4.24648 12.6697 4.66095 12.5295 4.99963 12.2705C5.33831 12.0116 5.58238 11.6485 5.69419 11.2371H11.9812C12.1193 11.2371 12.2518 11.1822 12.3495 11.0845C12.4472 10.9868 12.5021 10.8543 12.5021 10.7161C12.5021 10.578 12.4472 10.4455 12.3495 10.3478C12.2518 10.2501 12.1193 10.1952 11.9812 10.1952ZM3.81991 11.6278C3.63961 11.6278 3.46336 11.5743 3.31345 11.4741C3.16353 11.374 3.04669 11.2316 2.97769 11.065C2.9087 10.8984 2.89064 10.7151 2.92582 10.5383C2.96099 10.3615 3.04781 10.199 3.17531 10.0715C3.3028 9.94405 3.46523 9.85723 3.64207 9.82205C3.8189 9.78688 4.0022 9.80493 4.16877 9.87393C4.33535 9.94293 4.47772 10.0598 4.57789 10.2097C4.67806 10.3596 4.73152 10.5358 4.73152 10.7161C4.73111 10.9578 4.63493 11.1894 4.46406 11.3603C4.29319 11.5312 4.06156 11.6273 3.81991 11.6278Z" fill="#BFBFBF"/>
</svg>
